<?xml version="1.0" encoding="iso-8859-1"?>
<!-- Generator: Adobe Illustrator 19.0.0, SVG Export Plug-In . SVG Version: 6.00 Build 0)  -->
<svg version="1.1" id="Capa_1" xmlns="http://www.w3.org/2000/svg" xmlns:xlink="http://www.w3.org/1999/xlink" x="0px" y="0px"
	 viewBox="0 0 512 512" style="enable-background:new 0 0 512 512;" xml:space="preserve">
<path style="fill:#BBDEFB;" d="M288,416c114.88,0,208-85.952,208-192S402.88,32,288,32S80,117.952,80,224c0,0,15.008,96-64,96
	C16,400,160,416,288,416"/>
<path style="fill:#455A64;" d="M288,432C94.208,432,0,395.36,0,320c0-8.832,7.168-16,16-16c15.872,0,27.456-4.544,35.424-13.824
	c18.688-21.856,12.832-63.296,12.768-63.712C64,109.312,164.48,16,288,16c123.488,0,224,93.312,224,208S411.488,432,288,432z
	 M34.432,334.336C49.664,377.376,136.576,400,288,400c105.888,0,192-78.976,192-176c0-97.056-86.112-176-192-176S96,126.944,96,224
	l0,0c0.192,0,8.16,53.792-20.256,86.976C65.152,323.328,51.328,331.168,34.432,334.336z"/>
<g>
	<circle style="fill:#37474F;" cx="352" cy="432" r="64"/>
	<circle style="fill:#37474F;" cx="160" cy="432" r="64"/>
</g>
<g>
	<path style="fill:#455A64;" d="M224.64,192c-8.832,0-16.16-7.168-16.16-16s7.008-16,15.84-16h0.32c8.832,0,16,7.168,16,16
		S233.472,192,224.64,192z"/>
	<path style="fill:#455A64;" d="M352.64,192c-8.8,0-16.16-7.168-16.16-16s7.008-16,15.84-16h0.32c8.832,0,16,7.168,16,16
		S361.472,192,352.64,192z"/>
	<path style="fill:#455A64;" d="M288,336c-46.144,0-85.472-31.424-95.616-76.48c-1.92-8.64,3.488-17.184,12.096-19.136
		c8.64-1.856,17.184,3.456,19.136,12.096C230.432,282.816,256.928,304,288,304c31.104,0,57.568-21.184,64.384-51.52
		c1.984-8.608,10.432-14.016,19.136-12.096c8.64,1.952,14.048,10.496,12.128,19.136C373.504,304.544,334.176,336,288,336z"/>
</g>
<g>
</g>
<g>
</g>
<g>
</g>
<g>
</g>
<g>
</g>
<g>
</g>
<g>
</g>
<g>
</g>
<g>
</g>
<g>
</g>
<g>
</g>
<g>
</g>
<g>
</g>
<g>
</g>
<g>
</g>
</svg>
